<svg width="68" height="15" viewBox="0 0 68 15" fill="none" xmlns="http://www.w3.org/2000/svg">
<path d="M4.14401 14.4C4.02667 14.4 3.93067 14.3627 3.85601 14.288C3.78134 14.2133 3.74401 14.1173 3.74401 14V12.896C2.92267 12.7893 2.23467 12.5813 1.68001 12.272C1.13601 11.9627 0.72534 11.5893 0.448007 11.152C0.170673 10.704 0.02134 10.2347 6.61612e-06 9.744C6.61612e-06 9.65867 0.0320066 9.584 0.0960066 9.52C0.170673 9.44533 0.256007 9.408 0.352007 9.408H2.36801C2.51734 9.408 2.62934 9.43467 2.70401 9.488C2.77867 9.54133 2.85334 9.61067 2.92801 9.696C3.01334 9.856 3.13067 10.0107 3.28001 10.16C3.44001 10.3093 3.64267 10.432 3.88801 10.528C4.14401 10.6133 4.45867 10.656 4.83201 10.656C5.45067 10.656 5.91467 10.56 6.22401 10.368C6.54401 10.176 6.70401 9.91467 6.70401 9.584C6.70401 9.34933 6.61867 9.15733 6.44801 9.008C6.27734 8.848 6.00001 8.70933 5.61601 8.592C5.24267 8.464 4.74134 8.336 4.11201 8.208C3.30134 8.03733 2.60801 7.81867 2.03201 7.552C1.46667 7.27467 1.03467 6.91733 0.736007 6.48C0.43734 6.032 0.288007 5.47733 0.288007 4.816C0.288007 3.96267 0.592007 3.23733 1.20001 2.64C1.81867 2.04267 2.66667 1.66933 3.74401 1.52V0.399999C3.74401 0.282666 3.78134 0.186666 3.85601 0.111999C3.93067 0.0373322 4.02667 -9.53674e-07 4.14401 -9.53674e-07H5.47201C5.57867 -9.53674e-07 5.66934 0.0373322 5.74401 0.111999C5.82934 0.186666 5.87201 0.282666 5.87201 0.399999V1.552C6.60801 1.68 7.22667 1.90933 7.72801 2.24C8.22934 2.57067 8.60801 2.944 8.86401 3.36C9.13067 3.776 9.26934 4.176 9.28001 4.56C9.28001 4.64533 9.24801 4.72533 9.18401 4.8C9.12001 4.864 9.04001 4.896 8.94401 4.896H6.83201C6.71467 4.896 6.61334 4.87467 6.52801 4.832C6.44267 4.78933 6.36801 4.72 6.30401 4.624C6.24001 4.38933 6.06934 4.18667 5.79201 4.016C5.51467 3.83467 5.15734 3.744 4.72001 3.744C4.26134 3.744 3.89867 3.82933 3.63201 4C3.36534 4.16 3.23201 4.41067 3.23201 4.752C3.23201 4.96533 3.30134 5.152 3.44001 5.312C3.58934 5.472 3.83467 5.61067 4.17601 5.728C4.51734 5.84533 4.98134 5.968 5.56801 6.096C6.53867 6.27733 7.32267 6.50667 7.92001 6.784C8.51734 7.05067 8.95467 7.40267 9.23201 7.84C9.50934 8.26667 9.64801 8.80533 9.64801 9.456C9.64801 10.0853 9.48801 10.64 9.16801 11.12C8.85867 11.6 8.42134 11.9893 7.85601 12.288C7.29067 12.5867 6.62934 12.784 5.87201 12.88V14C5.87201 14.1173 5.82934 14.2133 5.74401 14.288C5.66934 14.3627 5.57867 14.4 5.47201 14.4H4.14401Z" fill="#2959CE"/>
<path d="M18.5134 12.8C18.4067 12.8 18.316 12.768 18.2414 12.704C18.1774 12.6293 18.1454 12.5387 18.1454 12.432V3.472L15.4894 5.52C15.404 5.584 15.3134 5.61067 15.2174 5.6C15.1214 5.58933 15.0414 5.54133 14.9774 5.456L14.5614 4.928C14.4974 4.832 14.4707 4.736 14.4814 4.64C14.5027 4.544 14.556 4.464 14.6414 4.4L18.1294 1.712C18.204 1.65867 18.2734 1.62667 18.3374 1.616C18.4014 1.60533 18.4707 1.6 18.5454 1.6H19.3614C19.468 1.6 19.5534 1.63733 19.6174 1.712C19.6814 1.776 19.7134 1.86133 19.7134 1.968V12.432C19.7134 12.5387 19.6814 12.6293 19.6174 12.704C19.5534 12.768 19.468 12.8 19.3614 12.8H18.5134ZM26.0131 12.96C25.2771 12.96 24.6531 12.848 24.1411 12.624C23.6398 12.3893 23.2291 12.0693 22.9091 11.664C22.5891 11.2587 22.3545 10.7947 22.2051 10.272C22.0665 9.74933 21.9865 9.19467 21.9651 8.608C21.9545 8.32 21.9438 8.016 21.9331 7.696C21.9331 7.376 21.9331 7.056 21.9331 6.736C21.9438 6.40533 21.9545 6.09067 21.9651 5.792C21.9758 5.20533 22.0558 4.65067 22.2051 4.128C22.3651 3.59467 22.5998 3.13067 22.9091 2.736C23.2291 2.33067 23.6451 2.016 24.1571 1.792C24.6691 1.55733 25.2878 1.44 26.0131 1.44C26.7491 1.44 27.3678 1.55733 27.8691 1.792C28.3811 2.016 28.7971 2.33067 29.1171 2.736C29.4371 3.13067 29.6718 3.59467 29.8211 4.128C29.9811 4.65067 30.0665 5.20533 30.0771 5.792C30.0878 6.09067 30.0931 6.40533 30.0931 6.736C30.1038 7.056 30.1038 7.376 30.0931 7.696C30.0931 8.016 30.0878 8.32 30.0771 8.608C30.0665 9.19467 29.9811 9.74933 29.8211 10.272C29.6718 10.7947 29.4371 11.2587 29.1171 11.664C28.8078 12.0693 28.3971 12.3893 27.8851 12.624C27.3838 12.848 26.7598 12.96 26.0131 12.96ZM26.0131 11.6C26.8451 11.6 27.4585 11.328 27.8531 10.784C28.2585 10.2293 28.4665 9.47733 28.4771 8.528C28.4985 8.21867 28.5091 7.92 28.5091 7.632C28.5091 7.33333 28.5091 7.04 28.5091 6.752C28.5091 6.45333 28.4985 6.16 28.4771 5.872C28.4665 4.944 28.2585 4.20267 27.8531 3.648C27.4585 3.08267 26.8451 2.8 26.0131 2.8C25.1918 2.8 24.5785 3.08267 24.1731 3.648C23.7785 4.20267 23.5705 4.944 23.5491 5.872C23.5491 6.16 23.5438 6.45333 23.5331 6.752C23.5331 7.04 23.5331 7.33333 23.5331 7.632C23.5438 7.92 23.5491 8.21867 23.5491 8.528C23.5705 9.47733 23.7838 10.2293 24.1891 10.784C24.5945 11.328 25.2025 11.6 26.0131 11.6ZM35.5134 12.8C35.4067 12.8 35.316 12.768 35.2414 12.704C35.1774 12.6293 35.1454 12.5387 35.1454 12.432V3.472L32.4894 5.52C32.404 5.584 32.3134 5.61067 32.2174 5.6C32.1214 5.58933 32.0414 5.54133 31.9774 5.456L31.5614 4.928C31.4974 4.832 31.4707 4.736 31.4814 4.64C31.5027 4.544 31.556 4.464 31.6414 4.4L35.1294 1.712C35.204 1.65867 35.2734 1.62667 35.3374 1.616C35.4014 1.60533 35.4707 1.6 35.5454 1.6H36.3614C36.468 1.6 36.5534 1.63733 36.6174 1.712C36.6814 1.776 36.7134 1.86133 36.7134 1.968V12.432C36.7134 12.5387 36.6814 12.6293 36.6174 12.704C36.5534 12.768 36.468 12.8 36.3614 12.8H35.5134ZM42.7091 12.96C42.0371 12.96 41.4505 12.88 40.9491 12.72C40.4478 12.5493 40.0265 12.3253 39.6851 12.048C39.3438 11.7707 39.0825 11.4667 38.9011 11.136C38.7305 10.8053 38.6398 10.464 38.6291 10.112C38.6291 10.016 38.6611 9.94133 38.7251 9.888C38.7891 9.83467 38.8691 9.808 38.9651 9.808H39.7491C39.8451 9.808 39.9305 9.82933 40.0051 9.872C40.0798 9.91467 40.1438 10.0053 40.1971 10.144C40.3038 10.528 40.4851 10.8267 40.7411 11.04C41.0078 11.2533 41.3118 11.4027 41.6531 11.488C42.0051 11.5627 42.3571 11.6 42.7091 11.6C43.4451 11.6 44.0425 11.424 44.5011 11.072C44.9598 10.72 45.1891 10.2027 45.1891 9.52C45.1891 8.82667 44.9811 8.33067 44.5651 8.032C44.1491 7.73333 43.5731 7.584 42.8371 7.584H41.3171C41.2105 7.584 41.1198 7.552 41.0451 7.488C40.9811 7.424 40.9491 7.33333 40.9491 7.216V6.784C40.9491 6.688 40.9651 6.608 40.9971 6.544C41.0398 6.46933 41.0825 6.40533 41.1251 6.352L44.2291 2.96H39.5091C39.4025 2.96 39.3118 2.928 39.2371 2.864C39.1731 2.8 39.1411 2.70933 39.1411 2.592V1.984C39.1411 1.86667 39.1731 1.776 39.2371 1.712C39.3118 1.63733 39.4025 1.6 39.5091 1.6H45.8931C46.0105 1.6 46.1011 1.63733 46.1651 1.712C46.2398 1.776 46.2771 1.86667 46.2771 1.984V2.56C46.2771 2.63467 46.2558 2.704 46.2131 2.768C46.1811 2.82133 46.1438 2.87467 46.1011 2.928L43.0131 6.368L43.2691 6.384C43.9731 6.40533 44.5865 6.53333 45.1091 6.768C45.6425 7.00267 46.0531 7.35467 46.3411 7.824C46.6398 8.28267 46.7891 8.864 46.7891 9.568C46.7891 10.2827 46.6131 10.896 46.2611 11.408C45.9091 11.9093 45.4238 12.2933 44.8051 12.56C44.1865 12.8267 43.4878 12.96 42.7091 12.96ZM49.9345 12.8C49.8385 12.8 49.7585 12.768 49.6945 12.704C49.6412 12.6293 49.6145 12.544 49.6145 12.448C49.6145 12.416 49.6252 12.368 49.6465 12.304L53.6305 2.992H48.3825C48.2758 2.992 48.1852 2.96 48.1105 2.896C48.0465 2.82133 48.0145 2.73067 48.0145 2.624V1.984C48.0145 1.86667 48.0465 1.776 48.1105 1.712C48.1852 1.63733 48.2758 1.6 48.3825 1.6H54.9425C55.0598 1.6 55.1505 1.63733 55.2145 1.712C55.2892 1.776 55.3265 1.86667 55.3265 1.984V2.576C55.3265 2.71467 55.3158 2.82667 55.2945 2.912C55.2732 2.99733 55.2412 3.09333 55.1985 3.2L51.2465 12.4C51.2145 12.4853 51.1612 12.576 51.0865 12.672C51.0225 12.7573 50.9265 12.8 50.7985 12.8H49.9345ZM56.1468 12.8C56.0401 12.8 55.9494 12.768 55.8748 12.704C55.8108 12.6293 55.7788 12.5387 55.7788 12.432V11.28C55.7788 11.1733 55.8108 11.088 55.8748 11.024C55.9494 10.9493 56.0401 10.912 56.1468 10.912H57.2988C57.4054 10.912 57.4908 10.9493 57.5548 11.024C57.6294 11.088 57.6668 11.1733 57.6668 11.28V12.432C57.6668 12.5387 57.6294 12.6293 57.5548 12.704C57.4908 12.768 57.4054 12.8 57.2988 12.8H56.1468ZM59.89 12.8C59.7833 12.8 59.6927 12.768 59.618 12.704C59.554 12.6293 59.522 12.5387 59.522 12.432V11.92C59.522 11.824 59.5487 11.7173 59.602 11.6C59.6553 11.4827 59.762 11.3547 59.922 11.216L63.314 7.824C63.858 7.36533 64.2847 6.976 64.594 6.656C64.914 6.32533 65.138 6.01067 65.266 5.712C65.4047 5.41333 65.474 5.104 65.474 4.784C65.474 4.176 65.3033 3.696 64.962 3.344C64.6207 2.98133 64.114 2.8 63.442 2.8C63.0153 2.8 62.6473 2.89067 62.338 3.072C62.0287 3.24267 61.7833 3.48267 61.602 3.792C61.4313 4.09067 61.3193 4.432 61.266 4.816C61.2447 4.95467 61.186 5.05067 61.09 5.104C61.0047 5.15733 60.9247 5.184 60.85 5.184H60.018C59.922 5.184 59.842 5.15733 59.778 5.104C59.714 5.04 59.682 4.96533 59.682 4.88C59.6927 4.47467 59.778 4.06933 59.938 3.664C60.098 3.248 60.3327 2.87467 60.642 2.544C60.962 2.21333 61.3513 1.94667 61.81 1.744C62.2793 1.53067 62.8233 1.424 63.442 1.424C64.2847 1.424 64.9727 1.57867 65.506 1.888C66.05 2.18667 66.45 2.58667 66.706 3.088C66.962 3.58933 67.09 4.13867 67.09 4.736C67.09 5.20533 67.01 5.63733 66.85 6.032C66.69 6.416 66.4553 6.79467 66.146 7.168C65.8473 7.53067 65.474 7.904 65.026 8.288L61.954 11.408H66.946C67.0633 11.408 67.154 11.44 67.218 11.504C67.2927 11.568 67.33 11.6587 67.33 11.776V12.432C67.33 12.5387 67.2927 12.6293 67.218 12.704C67.154 12.768 67.0633 12.8 66.946 12.8H59.89Z" fill="#555555"/>
</svg>
