<svg width="63" height="12" viewBox="0 0 63 12" fill="none" xmlns="http://www.w3.org/2000/svg">
<path d="M0.384014 11.376C0.277348 11.376 0.186681 11.3387 0.112014 11.264C0.0373475 11.1893 1.41859e-05 11.0987 1.41859e-05 10.992V0.575999C1.41859e-05 0.458666 0.0373475 0.362665 0.112014 0.287999C0.186681 0.213332 0.277348 0.175999 0.384014 0.175999H4.67201C5.50401 0.175999 6.22935 0.309332 6.84801 0.575999C7.46668 0.831999 7.94668 1.22667 8.28801 1.76C8.62935 2.28267 8.80001 2.93867 8.80001 3.728C8.80001 4.528 8.62935 5.18933 8.28801 5.712C7.94668 6.224 7.46668 6.608 6.84801 6.864C6.22935 7.12 5.50401 7.248 4.67201 7.248H2.28801V10.992C2.28801 11.0987 2.25068 11.1893 2.17601 11.264C2.11201 11.3387 2.02135 11.376 1.90401 11.376H0.384014ZM2.25601 5.472H4.59201C5.21068 5.472 5.68535 5.328 6.01601 5.04C6.34668 4.74133 6.51201 4.304 6.51201 3.728C6.51201 3.19467 6.35735 2.768 6.04801 2.448C5.73868 2.11733 5.25335 1.952 4.59201 1.952H2.25601V5.472Z" fill="#2959CE"/>
<path d="M17.6368 11.376C17.5301 11.376 17.4394 11.344 17.3648 11.28C17.3008 11.2053 17.2688 11.1147 17.2688 11.008V2.048L14.6128 4.096C14.5274 4.16 14.4368 4.18667 14.3408 4.176C14.2448 4.16533 14.1648 4.11733 14.1008 4.032L13.6848 3.504C13.6208 3.408 13.5941 3.312 13.6048 3.216C13.6261 3.12 13.6794 3.04 13.7648 2.976L17.2528 0.287999C17.3274 0.234666 17.3968 0.202666 17.4608 0.191998C17.5248 0.181332 17.5941 0.175999 17.6688 0.175999H18.4848C18.5914 0.175999 18.6768 0.213332 18.7408 0.287999C18.8048 0.351999 18.8368 0.437332 18.8368 0.543999V11.008C18.8368 11.1147 18.8048 11.2053 18.7408 11.28C18.6768 11.344 18.5914 11.376 18.4848 11.376H17.6368ZM24.8325 11.536C24.1605 11.536 23.5738 11.456 23.0725 11.296C22.5712 11.1253 22.1498 10.9013 21.8085 10.624C21.4672 10.3467 21.2058 10.0427 21.0245 9.712C20.8538 9.38133 20.7632 9.04 20.7525 8.688C20.7525 8.592 20.7845 8.51733 20.8485 8.464C20.9125 8.41067 20.9925 8.384 21.0885 8.384H21.8725C21.9685 8.384 22.0538 8.40533 22.1285 8.448C22.2032 8.49067 22.2672 8.58133 22.3205 8.72C22.4272 9.104 22.6085 9.40267 22.8645 9.616C23.1312 9.82933 23.4352 9.97867 23.7765 10.064C24.1285 10.1387 24.4805 10.176 24.8325 10.176C25.5685 10.176 26.1658 10 26.6245 9.648C27.0832 9.296 27.3125 8.77867 27.3125 8.096C27.3125 7.40267 27.1045 6.90667 26.6885 6.608C26.2725 6.30933 25.6965 6.16 24.9605 6.16H23.4405C23.3338 6.16 23.2432 6.128 23.1685 6.064C23.1045 6 23.0725 5.90933 23.0725 5.792V5.36C23.0725 5.264 23.0885 5.184 23.1205 5.12C23.1632 5.04533 23.2058 4.98133 23.2485 4.928L26.3525 1.536H21.6325C21.5258 1.536 21.4352 1.504 21.3605 1.44C21.2965 1.376 21.2645 1.28533 21.2645 1.168V0.559999C21.2645 0.442665 21.2965 0.351999 21.3605 0.287999C21.4352 0.213332 21.5258 0.175999 21.6325 0.175999H28.0165C28.1338 0.175999 28.2245 0.213332 28.2885 0.287999C28.3632 0.351999 28.4005 0.442665 28.4005 0.559999V1.136C28.4005 1.21067 28.3792 1.28 28.3365 1.344C28.3045 1.39733 28.2672 1.45067 28.2245 1.504L25.1365 4.944L25.3925 4.96C26.0965 4.98133 26.7098 5.10933 27.2325 5.344C27.7658 5.57867 28.1765 5.93067 28.4645 6.4C28.7632 6.85867 28.9125 7.44 28.9125 8.144C28.9125 8.85867 28.7365 9.472 28.3845 9.984C28.0325 10.4853 27.5472 10.8693 26.9285 11.136C26.3098 11.4027 25.6112 11.536 24.8325 11.536ZM34.7619 11.536C34.1432 11.536 33.5726 11.4613 33.0499 11.312C32.5379 11.152 32.0952 10.928 31.7219 10.64C31.3592 10.3413 31.0766 9.984 30.8739 9.568C30.6712 9.152 30.5699 8.68267 30.5699 8.16C30.5699 7.50933 30.7246 6.94933 31.0339 6.48C31.3539 6.01067 31.7752 5.65333 32.2979 5.408C31.8819 5.16267 31.5566 4.84267 31.3219 4.448C31.0872 4.05333 30.9699 3.584 30.9699 3.04C30.9699 2.4 31.1246 1.86133 31.4339 1.424C31.7539 0.975999 32.1966 0.629332 32.7619 0.383999C33.3379 0.138666 34.0046 0.0159988 34.7619 0.0159988C35.5086 0.0159988 36.1646 0.138666 36.7299 0.383999C37.3059 0.618666 37.7486 0.959999 38.0579 1.408C38.3779 1.856 38.5379 2.39467 38.5379 3.024C38.5379 3.568 38.4206 4.04267 38.1859 4.448C37.9512 4.84267 37.6312 5.16267 37.2259 5.408C37.7486 5.65333 38.1646 6.01067 38.4739 6.48C38.7939 6.94933 38.9539 7.50933 38.9539 8.16C38.9539 8.85333 38.7779 9.456 38.4259 9.968C38.0739 10.4693 37.5832 10.8587 36.9539 11.136C36.3246 11.4027 35.5939 11.536 34.7619 11.536ZM34.7619 10.256C35.2526 10.256 35.6952 10.1707 36.0899 10C36.4846 9.82933 36.7992 9.58933 37.0339 9.28C37.2686 8.96 37.3859 8.58667 37.3859 8.16C37.3859 7.72267 37.2686 7.35467 37.0339 7.056C36.7992 6.74667 36.4846 6.512 36.0899 6.352C35.6952 6.18133 35.2526 6.096 34.7619 6.096C34.2712 6.096 33.8232 6.18133 33.4179 6.352C33.0232 6.512 32.7086 6.74667 32.4739 7.056C32.2392 7.35467 32.1219 7.72267 32.1219 8.16C32.1219 8.58667 32.2392 8.96 32.4739 9.28C32.7086 9.58933 33.0232 9.82933 33.4179 10C33.8232 10.1707 34.2712 10.256 34.7619 10.256ZM34.7619 4.832C35.1672 4.832 35.5406 4.75733 35.8819 4.608C36.2339 4.45867 36.5112 4.256 36.7139 4C36.9272 3.744 37.0339 3.43467 37.0339 3.072C37.0339 2.70933 36.9326 2.39467 36.7299 2.128C36.5379 1.86133 36.2659 1.65867 35.9139 1.52C35.5726 1.37067 35.1886 1.296 34.7619 1.296C34.3352 1.296 33.9459 1.37067 33.5939 1.52C33.2526 1.65867 32.9806 1.86133 32.7779 2.128C32.5752 2.39467 32.4739 2.70933 32.4739 3.072C32.4739 3.44533 32.5752 3.76533 32.7779 4.032C32.9806 4.288 33.2526 4.48533 33.5939 4.624C33.9459 4.76267 34.3352 4.832 34.7619 4.832ZM41.1295 11.376C41.0228 11.376 40.9322 11.344 40.8575 11.28C40.7935 11.2053 40.7615 11.1147 40.7615 11.008V9.856C40.7615 9.74933 40.7935 9.664 40.8575 9.6C40.9322 9.52533 41.0228 9.488 41.1295 9.488H42.2815C42.3882 9.488 42.4735 9.52533 42.5375 9.6C42.6122 9.664 42.6495 9.74933 42.6495 9.856V11.008C42.6495 11.1147 42.6122 11.2053 42.5375 11.28C42.4735 11.344 42.3882 11.376 42.2815 11.376H41.1295ZM44.8728 11.376C44.7661 11.376 44.6754 11.344 44.6008 11.28C44.5368 11.2053 44.5048 11.1147 44.5048 11.008V10.496C44.5048 10.4 44.5314 10.2933 44.5848 10.176C44.6381 10.0587 44.7448 9.93067 44.9048 9.792L48.2968 6.4C48.8408 5.94133 49.2674 5.552 49.5768 5.232C49.8968 4.90133 50.1208 4.58667 50.2488 4.288C50.3874 3.98933 50.4568 3.68 50.4568 3.36C50.4568 2.752 50.2861 2.272 49.9448 1.92C49.6034 1.55733 49.0968 1.376 48.4248 1.376C47.9981 1.376 47.6301 1.46667 47.3208 1.648C47.0114 1.81867 46.7661 2.05867 46.5848 2.368C46.4141 2.66667 46.3021 3.008 46.2488 3.392C46.2274 3.53067 46.1688 3.62667 46.0728 3.68C45.9874 3.73333 45.9074 3.76 45.8328 3.76H45.0008C44.9048 3.76 44.8248 3.73333 44.7608 3.68C44.6968 3.616 44.6648 3.54133 44.6648 3.456C44.6754 3.05067 44.7608 2.64533 44.9208 2.24C45.0808 1.824 45.3154 1.45067 45.6248 1.12C45.9448 0.789332 46.3341 0.522665 46.7928 0.319999C47.2621 0.106666 47.8061 -9.53674e-07 48.4248 -9.53674e-07C49.2674 -9.53674e-07 49.9554 0.154666 50.4888 0.463999C51.0328 0.762665 51.4328 1.16267 51.6888 1.664C51.9448 2.16533 52.0728 2.71467 52.0728 3.312C52.0728 3.78133 51.9928 4.21333 51.8328 4.608C51.6728 4.992 51.4381 5.37067 51.1288 5.744C50.8301 6.10667 50.4568 6.48 50.0088 6.864L46.9368 9.984H51.9288C52.0461 9.984 52.1368 10.016 52.2008 10.08C52.2754 10.144 52.3128 10.2347 52.3128 10.352V11.008C52.3128 11.1147 52.2754 11.2053 52.2008 11.28C52.1368 11.344 52.0461 11.376 51.9288 11.376H44.8728ZM58.0394 11.536C57.1541 11.536 56.4021 11.36 55.7834 11.008C55.1647 10.6453 54.6901 10.176 54.3594 9.6C54.0394 9.01333 53.8794 8.37867 53.8794 7.696C53.8794 7.376 53.9167 7.072 53.9914 6.784C54.0767 6.48533 54.1781 6.208 54.2954 5.952C54.4234 5.68533 54.5461 5.45067 54.6634 5.248C54.7914 5.03467 54.9034 4.864 54.9994 4.736L58.0394 0.495999C58.0927 0.442665 58.1567 0.378665 58.2314 0.303999C58.3061 0.218665 58.4181 0.175999 58.5674 0.175999H59.4154C59.5114 0.175999 59.5861 0.213332 59.6394 0.287999C59.7034 0.351999 59.7354 0.431999 59.7354 0.527999C59.7354 0.570666 59.7301 0.613332 59.7194 0.655999C59.7087 0.687999 59.6927 0.714665 59.6714 0.735999L57.3354 4C57.4634 3.95733 57.6074 3.93067 57.7674 3.92C57.9381 3.89867 58.0981 3.888 58.2474 3.888C58.8341 3.89867 59.3674 4.00533 59.8474 4.208C60.3274 4.41067 60.7381 4.688 61.0794 5.04C61.4314 5.38133 61.6981 5.78133 61.8794 6.24C62.0607 6.688 62.1514 7.168 62.1514 7.68C62.1514 8.352 61.9914 8.98133 61.6714 9.568C61.3514 10.1547 60.8821 10.6293 60.2634 10.992C59.6554 11.3547 58.9141 11.536 58.0394 11.536ZM58.0234 10.176C58.4714 10.176 58.8874 10.08 59.2714 9.888C59.6554 9.696 59.9647 9.41867 60.1994 9.056C60.4447 8.68267 60.5674 8.22933 60.5674 7.696C60.5674 7.152 60.4501 6.69867 60.2154 6.336C59.9807 5.96267 59.6661 5.68533 59.2714 5.504C58.8874 5.312 58.4714 5.216 58.0234 5.216C57.5754 5.216 57.1594 5.312 56.7754 5.504C56.3914 5.68533 56.0767 5.96267 55.8314 6.336C55.5967 6.69867 55.4794 7.152 55.4794 7.696C55.4794 8.22933 55.5967 8.68267 55.8314 9.056C56.0767 9.41867 56.3914 9.696 56.7754 9.888C57.1594 10.08 57.5754 10.176 58.0234 10.176Z" fill="#555555"/>
</svg>
